<svg xmlns="http://www.w3.org/2000/svg"  viewBox="0 0 48 48" width="512px" height="512px"><path fill="#E1E7EA" d="M45,35c0,2.2-1.8,4-4,4H7c-2.2,0-4-1.8-4-4V13c0-2.2,1.8-4,4-4h34c2.2,0,4,1.8,4,4V35z"/><path fill="#FF6D00" d="M45,35c0,2.2-1.8,4-4,4H16c0,0,23.6-3.8,29-15V35z M22,24c0,1.7,1.3,3,3,3s3-1.3,3-3c0-1.7-1.3-3-3-3S22,22.3,22,24z"/><path d="M11.2,21h1.1v6h-1.1V21z M17.2,24c0,1.7,1.3,3,3,3c0.5,0,0.9-0.1,1.4-0.3v-1.3c-0.4,0.4-0.8,0.6-1.4,0.6c-1.1,0-1.9-0.8-1.9-2c0-1.1,0.8-2,1.9-2c0.5,0,0.9,0.2,1.4,0.6v-1.3c-0.5-0.2-0.9-0.4-1.4-0.4C18.5,21,17.2,22.4,17.2,24z M30.6,24.9L29,21h-1.2l2.5,6h0.6l2.5-6h-1.2L30.6,24.9z M33.9,27h3.2v-1H35v-1.6h2v-1h-2V22h2.1v-1h-3.2V27z M41.5,22.8c0-1.1-0.7-1.8-2-1.8h-1.7v6h1.1v-2.4h0.1l1.6,2.4H42l-1.8-2.5C41,24.3,41.5,23.7,41.5,22.8z M39.2,23.8h-0.3v-1.8h0.3c0.7,0,1.1,0.3,1.1,0.9C40.3,23.4,40,23.8,39.2,23.8z M7.7,21H6v6h1.6c2.5,0,3.1-2.1,3.1-3C10.8,22.2,9.5,21,7.7,21z M7.4,26H7.1v-4h0.4c1.5,0,2.1,1,2.1,2C9.6,24.4,9.5,26,7.4,26z M15.3,23.3c-0.7-0.3-0.9-0.4-0.9-0.7c0-0.4,0.4-0.6,0.8-0.6c0.3,0,0.6,0.1,0.9,0.5l0.6-0.8C16.2,21.2,15.7,21,15,21c-1,0-1.8,0.7-1.8,1.7c0,0.8,0.4,1.2,1.4,1.6c0.6,0.2,1.1,0.4,1.1,0.9c0,0.5-0.4,0.8-0.9,0.8c-0.5,0-1-0.3-1.2-0.8l-0.7,0.7c0.5,0.8,1.1,1.1,2,1.1c1.2,0,2-0.8,2-1.9C16.9,24.2,16.5,23.8,15.3,23.3z"/></svg>